<svg width="319" height="227" viewBox="0 0 319 227" fill="none" xmlns="http://www.w3.org/2000/svg">
<mask id="mask0_505_24" style="mask-type:alpha" maskUnits="userSpaceOnUse" x="133" y="0" width="186" height="123">
<path d="M133 0H319V123H133V0Z" fill="white"/>
</mask>
<g mask="url(#mask0_505_24)">
<path fill-rule="evenodd" clip-rule="evenodd" d="M158.5 234C224.498 234 278 180.498 278 114.5C278 48.502 224.498 -5 158.5 -5C92.502 -5 39 48.502 39 114.5C39 180.498 92.502 234 158.5 234ZM158.5 236C225.603 236 280 181.603 280 114.5C280 47.3974 225.603 -7 158.5 -7C91.3974 -7 37 47.3974 37 114.5C37 181.603 91.3974 236 158.5 236Z" fill="white"/>
</g>
<mask id="mask1_505_24" style="mask-type:alpha" maskUnits="userSpaceOnUse" x="0" y="114" width="204" height="113">
<path d="M0 114H204V227H0V114Z" fill="white"/>
</mask>
<g mask="url(#mask1_505_24)">
<path fill-rule="evenodd" clip-rule="evenodd" d="M158.5 234C224.498 234 278 180.498 278 114.5C278 48.502 224.498 -5 158.5 -5C92.502 -5 39 48.502 39 114.5C39 180.498 92.502 234 158.5 234ZM158.5 236C225.603 236 280 181.603 280 114.5C280 47.3974 225.603 -7 158.5 -7C91.3974 -7 37 47.3974 37 114.5C37 181.603 91.3974 236 158.5 236Z" fill="white"/>
</g>
<path d="M203.438 140.047C203.841 140.047 204.211 140.102 204.549 140.212C204.893 140.315 205.19 140.472 205.44 140.685C205.696 140.89 205.894 141.147 206.034 141.455C206.18 141.756 206.254 142.108 206.254 142.511C206.254 142.826 206.206 143.134 206.111 143.435C206.023 143.736 205.872 144.011 205.66 144.26C205.447 144.502 205.168 144.7 204.824 144.854C204.486 145.001 204.068 145.074 203.57 145.074H202.393V148H201.326V140.047H203.438ZM203.548 144.051C203.863 144.051 204.123 144.003 204.329 143.908C204.541 143.813 204.706 143.692 204.824 143.545C204.941 143.391 205.025 143.226 205.077 143.05C205.128 142.874 205.154 142.709 205.154 142.555C205.154 142.394 205.124 142.229 205.066 142.06C205.014 141.884 204.926 141.723 204.802 141.576C204.684 141.429 204.527 141.308 204.329 141.213C204.138 141.118 203.903 141.07 203.625 141.07H202.393V144.051H203.548ZM204.857 144.656L206.936 148H205.704L203.592 144.689L204.857 144.656Z" fill="white"/>
<path d="M190.3 140.047H195.47V141.07H191.367V143.49H195.03V144.513H191.367V146.977H195.624V148H190.3V140.047Z" fill="white"/>
<path d="M182.031 140.047C182.611 140.047 183.106 140.146 183.516 140.344C183.927 140.535 184.242 140.813 184.462 141.18C184.69 141.547 184.803 141.99 184.803 142.511C184.803 142.826 184.756 143.138 184.66 143.446C184.565 143.747 184.411 144.022 184.198 144.271C183.993 144.513 183.722 144.707 183.384 144.854C183.047 145.001 182.636 145.074 182.152 145.074H180.975V148H179.908V140.047H182.031ZM182.141 144.051C182.457 144.051 182.717 144 182.922 143.897C183.128 143.794 183.289 143.666 183.406 143.512C183.524 143.351 183.608 143.182 183.659 143.006C183.711 142.83 183.736 142.672 183.736 142.533C183.736 142.372 183.711 142.207 183.659 142.038C183.608 141.862 183.52 141.704 183.395 141.565C183.278 141.418 183.12 141.301 182.922 141.213C182.732 141.118 182.493 141.07 182.207 141.07H180.975V144.051H182.141Z" fill="white"/>
<path d="M166.131 144.029C166.131 143.479 166.234 142.962 166.439 142.478C166.652 141.987 166.945 141.554 167.319 141.18C167.693 140.799 168.122 140.502 168.606 140.289C169.098 140.069 169.626 139.959 170.19 139.959C170.748 139.959 171.268 140.069 171.752 140.289C172.244 140.502 172.676 140.799 173.05 141.18C173.432 141.554 173.729 141.987 173.941 142.478C174.154 142.962 174.26 143.479 174.26 144.029C174.26 144.594 174.154 145.122 173.941 145.613C173.729 146.104 173.432 146.537 173.05 146.911C172.676 147.278 172.244 147.567 171.752 147.78C171.268 147.985 170.748 148.088 170.19 148.088C169.626 148.088 169.098 147.985 168.606 147.78C168.122 147.575 167.693 147.289 167.319 146.922C166.945 146.555 166.652 146.126 166.439 145.635C166.234 145.144 166.131 144.608 166.131 144.029ZM167.231 144.04C167.231 144.458 167.308 144.85 167.462 145.217C167.616 145.576 167.829 145.895 168.1 146.174C168.372 146.453 168.687 146.673 169.046 146.834C169.406 146.988 169.794 147.065 170.212 147.065C170.623 147.065 171.008 146.988 171.367 146.834C171.727 146.673 172.038 146.453 172.302 146.174C172.566 145.895 172.775 145.576 172.929 145.217C173.083 144.85 173.16 144.454 173.16 144.029C173.16 143.611 173.083 143.219 172.929 142.852C172.775 142.478 172.563 142.152 172.291 141.873C172.02 141.594 171.705 141.378 171.345 141.224C170.986 141.063 170.601 140.982 170.19 140.982C169.772 140.982 169.384 141.063 169.024 141.224C168.665 141.385 168.35 141.605 168.078 141.884C167.807 142.163 167.598 142.489 167.451 142.863C167.305 143.23 167.231 143.622 167.231 144.04Z" fill="white"/>
<path d="M156.084 140.047H157.151V146.977H161.188V148H156.084V140.047Z" fill="white"/>
<path d="M145.058 140.047H150.228V141.07H146.125V143.49H149.788V144.513H146.125V146.977H150.382V148H145.058V140.047Z" fill="white"/>
<path d="M133.874 140.047L136.492 146.625L135.887 146.504L138.373 140.047H139.616L136.107 148.363L132.609 140.047H133.874Z" fill="white"/>
<path d="M122.276 140.047H127.446V141.07H123.343V143.49H127.006V144.513H123.343V146.977H127.6V148H122.276V140.047Z" fill="white"/>
<path d="M110.144 148V140.047H112.311C113.096 140.047 113.763 140.168 114.313 140.41C114.87 140.652 115.318 140.971 115.655 141.367C115.992 141.763 116.238 142.203 116.392 142.687C116.553 143.164 116.634 143.64 116.634 144.117C116.634 144.718 116.528 145.257 116.315 145.734C116.11 146.211 115.824 146.618 115.457 146.955C115.09 147.292 114.669 147.553 114.192 147.736C113.723 147.912 113.224 148 112.696 148H110.144ZM111.211 146.977H112.487C112.927 146.977 113.33 146.911 113.697 146.779C114.071 146.647 114.394 146.456 114.665 146.207C114.944 145.958 115.16 145.653 115.314 145.294C115.468 144.927 115.545 144.513 115.545 144.051C115.545 143.56 115.464 143.131 115.303 142.764C115.142 142.39 114.922 142.078 114.643 141.829C114.364 141.58 114.049 141.393 113.697 141.268C113.345 141.136 112.975 141.07 112.586 141.07H111.211V146.977Z" fill="white"/>
<path d="M243.635 123V99.141H250.136C252.49 99.141 254.492 99.504 256.142 100.23C257.814 100.956 259.156 101.913 260.168 103.101C261.18 104.289 261.917 105.609 262.379 107.061C262.863 108.491 263.105 109.921 263.105 111.351C263.105 113.155 262.786 114.772 262.148 116.202C261.532 117.632 260.674 118.853 259.574 119.865C258.474 120.877 257.209 121.658 255.779 122.208C254.371 122.736 252.875 123 251.291 123H243.635ZM246.836 119.931H250.664C251.984 119.931 253.194 119.733 254.294 119.337C255.416 118.941 256.384 118.369 257.198 117.621C258.034 116.873 258.683 115.96 259.145 114.882C259.607 113.782 259.838 112.539 259.838 111.153C259.838 109.679 259.596 108.392 259.112 107.292C258.628 106.17 257.968 105.235 257.132 104.487C256.296 103.739 255.35 103.178 254.294 102.804C253.238 102.408 252.127 102.21 250.961 102.21H246.836V119.931Z" fill="white"/>
<path d="M208.831 99.141H212.032V123H208.831V99.141Z" fill="white"/>
<path d="M177.208 99.141V123H174.04V112.539H161.533V123H158.332V99.141H161.533V109.503H174.04V99.141H177.208Z" fill="white"/>
<path d="M108.067 123L118.495 98.151H118.693L129.088 123H125.425L117.637 103.167L119.914 101.682L111.202 123H108.067ZM114.172 113.958H123.049L124.105 116.73H113.248L114.172 113.958Z" fill="white"/>
<path d="M53.353 99.273H57.049L63.517 117.489L62.956 117.258L67.675 105.048L69.16 109.371L62.857 124.089L53.353 99.273ZM64.804 99.273H68.005L75.001 117.225L74.341 117.093L80.512 99.273H83.911L74.539 124.056L64.804 99.273Z" fill="white"/>
</svg>
